#!OML:ASF E:\pregnant2\Project 1\Capture day 1\Session 1\pregnant2.ASF
:FULLY-SPECIFIED
:DEGREES
1215
root 5.17303 19.3641 -2.16232 29.0472 -3.47857 4.00339
lowerback -4.99312 2.52089 -1.73234
upperback -15.2599 2.87462 -5.44204
thorax -13.6824 1.184 -5.26602
lowerneck -5.18338 -3.54928 -3.13551
upperneck 52.3798 -5.36736 0.947753
head 23.4827 -2.57608 0.131883
rclavicle 3.18552e-014 -1.19271e-014
rhumerus -60.4524 -6.18754 -75.4426
rradius 45.5614
rwrist -0.0225816
rhand -17.2493 -19.3541
rfingers 7.12502
rthumb 8.99479 -49.1423
lclavicle 3.18552e-014 -1.19271e-014
lhumerus -50.7897 -6.62998 80.4354
lradius 39.5406
lwrist 1.27243
lhand -9.82632 28.1834
lfingers 7.12502
lthumb 16.1509 57.5305
rfemur -53.7559 -6.72767 20.8435
rtibia 68.9037
rfoot -2.81542 -4.19902
rtoes -6.28748
lfemur -47.1143 -12.134 -27.1436
ltibia 32.4225
lfoot -10.0764 17.2433
ltoes -8.24611
1216
root 5.18517 19.365 -2.09756 29.0875 -3.47582 4.16384
lowerback -4.94967 2.42144 -1.93317
upperback -15.2689 2.73024 -5.42275
thorax -13.7441 1.13705 -5.12834
lowerneck -5.19207 -3.514 -3.08113
upperneck 52.3763 -5.31659 0.918127
head 23.4726 -2.55071 0.113371
rclavicle -4.38817e-014 2.06736e-014
rhumerus -60.4212 -6.07185 -75.4639
rradius 45.5813
rwrist 0.127833
rhand -16.913 -19.0619
rfingers 7.12502
rthumb 9.31933 -48.8359
lclavicle -4.38817e-014 2.06736e-014
lhumerus -50.7046 -6.90869 80.6896
lradius 40.1902
lwrist 1.52584
lhand -9.87124 28.0335
lfingers 7.12502
lthumb 16.1076 57.3841
rfemur -55.0533 -6.97805 20.6089
rtibia 70.4972
rfoot -2.03196 -4.33533
rtoes -5.53902
lfemur -46.7835 -12.1157 -27.4525
ltibia 32.2341
lfoot -10.2331 17.1483
ltoes -8.46865
1217
root 5.19715 19.3677 -2.03115 29.1125 -3.44126 4.27099
lowerback -4.90195 2.32863 -2.06252
upperback -15.2721 2.5985 -5.39079
thorax -13.7959 1.08905 -5.01625
lowerneck -5.20374 -3.48223 -3.03271
upperneck 52.3792 -5.27109 0.890778
head 23.4716 -2.52811 0.0961626
rclavicle 3.8117e-014 -1.90833e-014
rhumerus -60.4302 -5.9325 -75.4931
rradius 45.6379
rwrist 0.434025
rhand -16.4432 -18.483
rfingers 7.12502
rthumb 9.77258 -48.2362
lclavicle 3.8117e-014 -1.90833e-014
lhumerus -50.6448 -7.21251 80.94
lradius 40.8927
lwrist 1.74846
lhand -9.89375 27.8207
lfingers 7.12502
lthumb 16.086 57.1731
rfemur -56.2607 -7.16572 20.4422
rtibia 71.9252
rfoot -1.79633 -4.74467
rtoes -5.12253
lfemur -46.4325 -12.0911 -27.6997
ltibia 32.0547
lfoot -10.4265 17.0571
ltoes -8.63659
1218
root 5.20935 19.3723 -1.96237 29.1113 -3.38951 4.30701
lowerback -4.84961 2.25105 -2.10411
upperback -15.2654 2.49239 -5.342
thorax -13.8314 1.04481 -4.93459
lowerneck -5.21833 -3.45255 -2.9942
upperneck 52.3889 -5.22641 0.864034
head 23.4802 -2.50755 0.0809448
rclavicle -3.33461e-014 1.66979e-014
rhumerus -60.4818 -5.77441 -75.5267
rradius 45.7328
rwrist 0.86017
rhand -15.8559 -17.7165
rfingers 7.12502
rthumb 10.3392 -47.4424
lclavicle -3.33461e-014 1.66979e-014
lhumerus -50.5903 -7.51531 81.1756
lradius 41.6124
lwrist 1.92607
lhand -9.89844 27.5484
lfingers 7.12502
lthumb 16.0814 56.9011
rfemur -57.367 -7.28148 20.3532
rtibia 73.1749
rfoot -1.90461 -5.40244
rtoes -4.81683
lfemur -46.0553 -12.0732 -27.8591
ltibia 31.8991
lfoot -10.65 17.0106
ltoes -8.75837
1219
root 5.22162 19.3781 -1.8918 29.0965 -3.32641 4.27017
lowerback -4.79802 2.18939 -2.06212
upperback -15.2534 2.41299 -5.27594
thorax -13.8537 1.00521 -4.88081
lowerneck -5.24244 -3.42411 -2.95785
upperneck 52.4092 -5.18011 0.831425
head 23.5038 -2.48705 0.0627665
rclavicle -2.37051e-014 3.18055e-014
rhumerus -60.5736 -5.60421 -75.567
rradius 45.8562
rwrist 1.37552
rhand -15.2248 -16.8287
rfingers 7.12502
rthumb 10.9479 -46.5233
lclavicle -2.37051e-014 3.18055e-014
lhumerus -50.5363 -7.81401 81.3975
lradius 42.3406
lwrist 2.0803
lhand -9.9102 27.263
lfingers 7.12502
lthumb 16.0701 56.6166
rfemur -58.3999 -7.32906 20.3449
rtibia 74.2447
rfoot -2.14656 -6.23303
rtoes -4.46094
lfemur -45.6779 -12.0632 -27.9257
ltibia 31.7835
lfoot -10.9028 17.0119
ltoes -8.84313
1220
root 5.2335 19.384 -1.82018 29.0833 -3.25813 4.16923
lowerback -4.75485 2.1415 -1.95504
upperback -15.24 2.35693 -5.19344
thorax -13.8644 0.970754 -4.84545
lowerneck -5.26326 -3.39892 -2.93362
upperneck 52.4292 -5.13627 0.800129
head 23.5271 -2.46979 0.0473303
rclavicle 3.04141e-014 -3.73715e-014
rhumerus -60.69 -5.4295 -75.6108
rradius 45.9866
rwrist 1.95958
rhand -14.5767 -15.9025
rfingers 7.12502
rthumb 11.573 -45.5629
lclavicle 3.04141e-014 -3.73715e-014
lhumerus -50.4821 -8.10449 81.6045
lradius 43.0832
lwrist 2.21129
lhand -9.91095 27.0257
lfingers 7.12502
lthumb 16.0694 56.3794
rfemur -59.3892 -7.31667 20.409
rtibia 75.141
rfoot -2.38405 -7.14015
rtoes -3.94375
lfemur -45.3265 -12.0542 -27.9102
ltibia 31.7187
lfoot -11.1772 17.0522
ltoes -8.90002
1221
root 5.24491 19.3896 -1.74762 29.0694 -3.19291 4.01915
lowerback -4.71616 2.1055 -1.79789
upperback -15.2228 2.3206 -5.09874
thorax -13.864 0.941115 -4.82482
lowerneck -5.30271 -3.37277 -2.90779
upperneck 52.4554 -5.08574 0.758596
head 23.5637 -2.45033 0.0264582
rclavicle 4.03533e-014 -3.81667e-014
rhumerus -60.8201 -5.25087 -75.6622
rradius 46.1176
rwrist 2.59034
rhand -13.9465 -15.0233
rfingers 7.12502
rthumb 12.1807 -44.6486
lclavicle 4.03533e-014 -3.81667e-014
lhumerus -50.4211 -8.37905 81.7941
lradius 43.8315
lwrist 2.3401
lhand -9.93564 26.8412
lfingers 7.12502
lthumb 16.0456 56.1968
rfemur -60.3376 -7.25665 20.5261
rtibia 75.8704
rfoot -2.56101 -8.033
rtoes -3.31321
lfemur -45.0011 -12.0421 -27.8344
ltibia 31.7086
lfoot -11.4692 17.1275
ltoes -8.93862
